<svg xmlns="http://www.w3.org/2000/svg" viewBox="0 0 800 800" fill="none">
  <g transform="translate(0,800) scale(0.1,-0.1)">
    <path fill="#83e571" d="M5250 6780 c-171 -21 -469 -108 -603 -176 -40 -20 -136 -81 -214
-136 -109 -77 -175 -134 -283 -244 -78 -79 -150 -144 -159 -144 -9 0 -34 23
-56 51 -47 63 -210 210 -291 264 -32 21 -70 49 -84 61 -85 75 -304 194 -435
237 -301 99 -638 112 -981 37 -145 -32 -400 -151 -534 -251 -47 -34 -108 -80
-136 -101 -148 -111 -339 -382 -433 -615 -107 -263 -126 -371 -126 -703 0
-297 23 -481 85 -685 60 -198 116 -360 147 -425 107 -227 181 -375 231 -460
89 -152 296 -458 368 -545 36 -44 115 -139 175 -212 131 -157 424 -461 602
-622 70 -64 171 -156 225 -204 111 -102 235 -200 430 -342 75 -55 196 -144
267 -197 140 -105 254 -168 350 -194 33 -9 114 -19 181 -21 101 -4 134 -2 204
16 112 28 196 69 288 139 43 32 112 82 156 111 43 29 106 76 140 105 33 29 89
71 122 94 72 48 193 143 267 210 29 26 80 70 112 97 217 182 645 613 800 804
255 314 452 597 565 811 51 96 107 200 124 230 119 206 254 599 308 895 24
133 35 476 20 605 -23 187 -83 414 -139 524 -88 174 -311 484 -413 575 -103
92 -418 277 -546 322 -193 66 -555 110 -734 89z" />
    <path fill="#000000" d="M3119 5157 c-104 -30 -199 -141 -228 -267 -6 -28 -11 -235 -11 -530
0 -585 0 -585 103 -696 22 -24 64 -53 99 -69 52 -24 70 -27 137 -23 46 2 92
11 116 22 41 20 135 103 135 120 0 5 6 17 14 25 8 9 23 47 35 85 20 65 21 89
21 538 0 450 -1 474 -21 542 -12 39 -28 84 -37 101 -23 45 -100 115 -151 138
-56 24 -152 31 -212 14z M4712 5155 c-111 -24 -192 -111 -233 -247 -19 -64
-19 -92 -17 -575 3 -504 3 -508 26 -565 31 -77 105 -149 183 -179 74 -27 180
-23 245 10 54 26 130 112 163 181 26 55 26 55 29 570 2 461 1 520 -14 570 -38
123 -125 211 -233 236 -67 16 -69 16 -149 -1z" />
  </g>
</svg>